<?xml version="1.0" encoding="utf-8"?>
<!-- Generator: Adobe Illustrator 16.0.0, SVG Export Plug-In . SVG Version: 6.00 Build 0)  -->
<!DOCTYPE svg PUBLIC "-//W3C//DTD SVG 1.1//EN" "http://www.w3.org/Graphics/SVG/1.1/DTD/svg11.dtd">
<svg version="1.1" id="Layer_1" xmlns="http://www.w3.org/2000/svg" xmlns:xlink="http://www.w3.org/1999/xlink" x="0px" y="0px"
	 width="1080px" height="1080px" viewBox="0 0 1080 1080" enable-background="new 0 0 1080 1080" xml:space="preserve">
<g>
	<g>
		<g>
			<path d="M245.753,121.513c12.104,6.931,24.12,13.98,35.942,21.385c4.861,3.074,10.868,3.816,16.054,2.442
				c0.474,1.788,0.711,2.682,1.185,4.47c-9.07,2.402-18.103,4.94-27.098,7.611c-12.93-8.419-25.978-16.576-39.209-24.513
				c-5.325-3.107-8.576-3.347-11.048-2.501c2.933,8.574,4.4,12.859,7.333,21.433c3.704,10.827,6.463,12.201,20.931,7.545
				c0.566,1.76,0.852,2.641,1.418,4.401c-15.034,4.839-29.947,10.054-44.722,15.635c-0.654-1.73-0.98-2.594-1.634-4.324
				c9.894-3.739,11.04-6.554,7.334-16.767c-6.072-16.733-12.145-33.465-18.214-50.199c-3.667-10.104-5.813-11.473-15.97-8.144
				c-0.651-1.731-0.978-2.596-1.629-4.327c14.134-5.224,28.32-10.214,42.612-14.986c13.376-4.566,38.501-8.297,43.825,9.895
				C266.867,104.251,257.824,115.896,245.753,121.513z M219.333,123.843c3.083-1.055,4.626-1.576,7.715-2.604
				c11.212-3.204,21.003-11.968,16.954-24.477c-3.142-9.707-13.703-13.34-22.95-9.938c-4.283,1.402-6.422,2.115-10.693,3.565
				c-1.351,0.458-1.948,1.519-1.574,2.612C212.301,103.283,215.818,113.563,219.333,123.843z"/>
			<path d="M403.841,92.064c3.847,24.353-9.333,38.467-32.518,42.739c-20.515,3.78-38.508-2.366-43.008-24.639
				c-2.3-10.303-4.6-20.607-6.899-30.91c-2.594-11.619-3.973-15.458-6.263-17.429c-1.963-1.69-4.511-1.838-10.411-0.446
				c-0.425-1.8-0.636-2.7-1.061-4.5c15.104-3.466,30.229-6.679,45.438-9.648c0.343,1.817,0.516,2.725,0.86,4.542
				c-7.081,1.339-9.864,2.541-11.248,4.785c-1.742,2.825-1.578,7.042,0.826,18.82c2.02,9.89,4.035,19.782,6.055,29.672
				c2.544,14.714,13.491,23.484,28.313,20.826c15.152-2.717,22.936-15.05,20.192-30.165c-1.607-10.559-2.41-15.837-4.017-26.396
				c-1.931-12.685-3.606-17.8-6.819-20.117c-2.536-1.828-6.196-2.199-12.79-1.09c-0.307-1.824-0.46-2.735-0.767-4.559
				c13.765-2.239,27.537-4.271,41.362-6.104c0.233,1.834,0.35,2.752,0.583,4.587c-6.241,0.793-9.229,2.031-10.807,4.347
				c-2.152,3.159-2.257,8.718-0.458,21.422C401.779,77.506,402.467,82.36,403.841,92.064z"/>
			<path d="M458.263,121.861c-0.163-1.842-0.246-2.763-0.409-4.605c10.577-1.284,12.325-3.328,11.509-14.162
				c-1.333-17.75-2.673-35.5-4.008-53.25c-0.807-10.719-2.615-12.593-11.853-12.263c-0.158-1.843-0.236-2.764-0.395-4.607
				c13.726-1.179,27.474-2.085,41.235-2.717c14.221-0.834,40.276,1.535,40.543,20.547c0.156,11.123-11.47,17.395-20.996,19.79
				c0.005,0.185,0.007,0.277,0.013,0.462c14.374-0.706,29.667,7.756,29.606,23.647c-0.029,7.843-4.142,13.892-11.273,17.732
				c-8.982,4.837-18.628,5.576-28.756,6.509C488.38,119.655,473.33,120.626,458.263,121.861z M492.407,69.114
				c7.426-0.369,12.815-1.955,16.463-4.497c4.007-2.793,5.599-7.068,5.645-12.081c0.101-11.037-9.7-16.471-19.848-15.236
				c-3.627,0.167-5.439,0.257-9.064,0.455c-1.404,0.077-2.252,0.936-2.187,2.09c0.564,9.886,1.125,19.772,1.689,29.658
				C488.025,69.337,489.486,69.259,492.407,69.114z M522.769,94.544c-0.314-6.622-2.412-11.754-7.396-14.857
				s-12.79-4.148-23.974-3.578c-2.359,0.12-3.539,0.185-5.898,0.319c0.526,9.232,0.788,13.848,1.314,23.08
				c0.539,9.462,5.742,12.44,17.209,12.359C514.063,111.796,523.285,105.421,522.769,94.544z"/>
			<path d="M641.563,81.229c8.312,11.128,16.5,22.328,24.386,33.764c3.233,4.734,8.428,7.773,13.707,8.543
				c-0.268,1.83-0.4,2.746-0.668,4.576c-11.067-1.615-16.612-2.343-27.709-3.629c-8.477-12.808-17.163-25.427-26.087-37.927
				c-3.624-4.947-6.48-6.443-9.053-6.637c-0.68,9.036-1.019,13.554-1.698,22.59c-0.858,11.41,1.1,13.757,16.064,15.153
				c-0.172,1.841-0.259,2.763-0.431,4.604c-15.511-1.446-31.056-2.509-46.618-3.192c0.081-1.848,0.119-2.771,0.2-4.619
				c10.396,0.455,12.532-1.685,13.149-12.531c1.016-17.771,2.02-35.542,3.031-53.313c0.609-10.732-0.806-12.833-11.281-13.769
				c0.083-1.848,0.126-2.771,0.209-4.619c14.839,0.756,29.636,1.742,44.443,2.964c14.088,1.062,38.275,7.587,36.027,26.297
				C667.545,73.559,654.845,80.786,641.563,81.229z M616.661,73.002c3.206,0.241,4.809,0.368,8.014,0.634
				c11.555,1.464,23.764-2.864,24.957-15.856c0.926-10.079-7.177-17.631-16.993-18.147c-4.438-0.392-6.653-0.575-11.094-0.919
				c-1.403-0.108-2.356,0.632-2.443,1.785C618.288,51.333,617.474,62.168,616.661,73.002z"/>
			<path d="M746.957,140.575c-13.766-2.96-27.547-5.69-41.401-8.201c0.319-1.822,0.481-2.732,0.801-4.554
				c10.582,1.5,12.691-0.042,15.349-14.126c2.872-15.219,5.744-30.438,8.611-45.658c2.42-12.835,1.365-16.263-8.941-18.549
				c0.321-1.821,0.479-2.732,0.801-4.554c14.302,2.604,28.535,5.424,42.75,8.466c-0.397,1.806-0.595,2.71-0.992,4.517
				c-10.421-1.819-12.698,0.95-15.353,13.738c-3.147,15.164-6.296,30.328-9.444,45.492c-2.915,14.033-1.555,16.263,8.821,18.914
				C747.559,137.866,747.357,138.77,746.957,140.575z"/>
			<path d="M819.903,140.344c-3.355,11.182-2.418,13.463,6.838,16.724c-0.553,1.765-0.83,2.647-1.383,4.412
				c-13.116-4.108-26.323-7.928-39.606-11.458c0.476-1.787,0.715-2.682,1.19-4.469c10.344,2.392,12.704,1.073,15.635-9.389
				c4.804-17.14,9.604-34.28,14.397-51.422c2.866-10.24,1.702-12.78-8.165-15.896c0.478-1.787,0.715-2.68,1.192-4.467
				c14.428,3.949,28.764,8.116,43.06,12.518c-0.554,1.764-0.83,2.646-1.384,4.41c-11.232-3.167-13.545-1.741-16.898,9.44
				c-2.948,9.831-4.42,14.747-7.369,24.577c13.551-7.149,27.195-14.028,40.996-20.682c2.42-1.138,3.884-2.227,4.366-3.65
				c0.52-1.533-1.108-3.205-7.517-5.316c0.578-1.756,0.867-2.635,1.445-4.391c11.28,3.718,22.498,7.628,33.645,11.73
				c-0.622,1.692-0.936,2.538-1.558,4.23c-7.286-2.435-10.204-2.277-23.055,3.433c-9.489,4.258-18.909,8.673-28.249,13.25
				c7.348,16.813,14.316,33.731,20.923,50.849c1.804,4.955,4.733,7.742,10.569,10.318c-0.654,1.73-0.98,2.594-1.635,4.324
				c-13.813-5.121-27.68-9.995-41.658-14.645c0.572-1.758,0.858-2.637,1.431-4.396c6.183,1.892,9.087,1.911,9.75-0.061
				c0.479-1.424,0.257-2.605-1.922-7.954c-4.221-10.252-8.549-20.437-12.997-30.592c-3.075,1.571-4.608,2.363-7.658,3.958
				C822.533,131.577,821.657,134.499,819.903,140.344z"/>
		</g>
	</g>
	<g>
		<g>
			<g>
				<path d="M561.368,832.172l184.111-50.182v-36.439l-186.265,84.623C559.97,830.801,560.68,831.467,561.368,832.172z"/>
				<path d="M814.505,787.084L564.24,835.615c0.175,0.238,0.374,0.471,0.543,0.725l249.722-12.814V787.084z"/>
				<path d="M520.792,830.174l-186.266-84.623v36.439l184.111,50.182C519.323,831.467,520.037,830.801,520.792,830.174z"/>
				<path d="M824.709,884.174v-25.305v-5.799v-5.855H569.765v3.096c0.085,0.916,0.141,1.832,0.141,2.76
					c0,16.512-13.394,29.9-29.905,29.9s-29.898-13.389-29.898-29.9c0-0.928,0.057-1.844,0.139-2.76v-3.096H255.295v5.855v5.799
					v25.305l-39.88,27.115h39.88h569.414h39.876L824.709,884.174z"/>
				<path d="M515.76,835.615l-250.265-48.531v36.441l249.722,12.814C515.387,836.086,515.584,835.854,515.76,835.615z"/>
			</g>
			<g>
				<path d="M419.023,977.25h26.271v9.021h-16.34v17.609h12.82v9.025h-12.82v27.539h-9.932V977.25z"/>
				<path d="M468.225,986.271h-10.381v-9.021h30.695v9.021h-10.383v54.174h-9.932V986.271z"/>
				<path d="M525.285,1004.334h19.861v9.029h-19.861V1004.334z"/>
				<path d="M587.941,1037.238c-2.53-2.736-3.794-6.666-3.794-11.783V977.25h9.932v48.93c0,2.17,0.436,3.732,1.309,4.695
					s2.122,1.443,3.75,1.443c1.625,0,2.872-0.48,3.748-1.443c0.868-0.963,1.309-2.525,1.309-4.695v-48.93h9.567v48.205
					c0,5.117-1.263,9.047-3.792,11.783c-2.528,2.746-6.199,4.109-11.013,4.109C594.141,1041.348,590.47,1039.984,587.941,1037.238z"
					/>
				<path d="M630.283,977.25h14.986c5.113,0,8.848,1.188,11.195,3.561c2.348,2.381,3.52,6.039,3.52,10.973v2.525
					c0,3.254-0.529,5.9-1.58,7.947c-1.054,2.049-2.665,3.52-4.827,4.42v0.184c4.932,1.686,7.397,6.084,7.397,13.184v5.412
					c0,4.877-1.274,8.594-3.834,11.156c-2.558,2.555-6.307,3.834-11.24,3.834h-15.617V977.25z M644.094,1002.975
					c1.984,0,3.478-0.508,4.471-1.535c0.992-1.018,1.487-2.738,1.487-5.145v-3.52c0-2.285-0.404-3.941-1.217-4.969
					c-0.813-1.021-2.095-1.535-3.837-1.535h-4.784v16.703H644.094z M645.9,1031.416c1.745,0,3.039-0.465,3.883-1.398
					c0.843-0.93,1.261-2.541,1.261-4.83v-5.51c0-2.889-0.495-4.885-1.487-6.006c-0.992-1.111-2.632-1.668-4.92-1.668h-4.423v19.412
					H645.9z"/>
			</g>
		</g>
		<g>
			<path fill-rule="evenodd" clip-rule="evenodd" d="M860.585,419.002c-4.842,4.279-9.677,8.566-16.343,14.467
				c7.397,0.787,11.486,1.223,15.574,1.654c-2.666,10.691-12.779,0.896-17.36,6.309c-9.264,5.795-15.296,15.824-25.959,19.775
				c-2.534,5.008-6.997,4.783-11.563,4.256c-24.691,5.996-46.969-4.863-70.068-9.998l0.191,0.258
				c-44.639-30.918-129.89-8.502-148.743,41.15c24.304-19.473,48.873-26.863,78.941-20.049c14.353,3.25,27.887-8.875,35.68-23.939
				c3.193,7.225-3.803,10.789-3.127,15.525c13.24,8.871,26.697,6.453,40.205,1.83c4.181,0.402,5.952,3.648,7.889,6.688
				c5.034,0.77,10.066,1.539,18.343,2.801c-14.691,6.041-24.922-3.385-37.521-2.031c7.108,9.186,16.371,11.857,25.422,14.891
				c0.762,3.289,0.127,5.109-3.729,3.545c-8.107-2.734-16.216-5.473-24.323-8.207l0.196,0.193
				c-12.784-11.029-26.445-13.395-43.273-4.041c18.503,11.287,35.191,22.734,54.769,28.08c33.261,9.078,59.527-4.967,82.354-27.486
				c15.269-15.068,32.125-26.6,53.944-29.299c4.103-0.678,9.029-3.76,10.402,3.559c-15.619,1.5-29.28,7.445-45.393,19.531
				c17.809-2.781,29.823,1.631,41.591,7.104c0.684,2.877-0.408,4.094-3.351,3.561c-2.4-0.207-4.8-0.41-7.2-0.613l0.288,0.365
				c-16.785-8.523-32.841-5.041-45.883,6.438c-10.735,9.445-21.467,18.873-32.849,27.598c5.724,2.793,11.057,5.459,16.441,8.023
				c25.282,12.047,40.301,7.207,54.569-17.215c1.711-2.924,4.709-5.102,7.109-7.621c3.322-1.02,4.131,0.508,3.52,3.471
				c-9.107,5.271-7.418,17.352-18.59,24.771c14.628-0.029,21.835-10.117,32.23-10.691c3.892-1.172,4.99,0.584,4.354,4.156
				c-4.201,0.66-8.338,1.422-10.755,5.957c11.023,6.17,18.381,18.875,33.52,17.691c-8.032,1.982-16.472,4.219-22.325-2.568
				c-10.123-11.719-22.251-10.979-34.087-5.551c-10.158,4.656-20.702,2.363-32.843,3.713c10.05,16.547,21.467,23.189,39.527,18.543
				c20.075-5.158,41.069-11.838,61.679,11.209c-21.46-11.9-39.051-8.744-58.456-1.4c8.784,7.066,17.225,13.072,19.582,24.094
				c-11.862-12.508-26.907-17.006-42.956-18.379c-15.054-1.287-23.063-11.668-30.935-22.328
				c-15.666-21.211-36.937-25.818-62.471-22.588c11.543,27.705,27.118,48.605,56.25,57.383
				c13.591,4.096,25.979,11.979,35.397,28.975c-10.476-6.996-16.133-14.912-25.48-16.848c-4.265,4.305,0.858,10.352-2.634,14.828
				c-0.794-0.623-2.234-1.197-2.287-1.863c-0.983-14.957-10.443-20.383-23.774-23.553c-8.524-2.025-16.64-6.703-22.825-13.639
				c-4.632-0.438-8.834-1.568-10.622-6.598c-16.103-27.652-39.402-46.033-72.15-55.162c3.392,18.096-4.604,36.568,8.043,53.457
				c-12.499-7.859-13.005-7.865-12.914-23.6c0.1-16.188-3.356-30.662-19.786-36.832c-17.877-6.711-34.346-1.516-47.973,11.338
				c-10.191,9.629-16.808,21.91-20.727,35.238c-8.496,28.873-6.914,58.547-1.866,87.404c5.398,30.828,37.684,53.438,70.265,53.379
				c11.981-0.025,24.021-0.137,35.909,1.057c12.367,1.246,22.327,7.266,27.866,20.34c-29.893-21.184-63.432-1.293-94.631-10.457
				c8.516,12.676,9.973,13.225,34.381,13.301c-15.906,11.229-51.38,1.875-73.079-19.262c-6.827-5.436-5.37-13.463-7.095-17.918
				c0.232,5.438,3.006,13.209,3.963,21.232c10.938,21.094,29.991,27.598,51.971,29.236c19.104,1.43,38.896,1.738,48.988,24.219
				c-19.15-15.012-41.007-11.16-62.402-11.021c-16.737,0.105-31.758-4.855-44.406-16.414c-4.371-3.99-9.256-7.791-14.562-10.275
				c-6.313-2.955-13-1.922-18.505,2.852c-6.116,5.309-2.766,11.027,0.084,16.203c2.105,3.82,3.983,7.318,1.966,12.75
				c-6.8-13.182-13.402-16.367-22.293-1.764c-4.806,7.895-14.545,10.635-23.633,11.24c-10.035,0.668-18.447,4.055-28.19,14.795
				c5.68-27.035,35.083-18.602,42.625-37.789c-4.23-0.662-8.044-1.26-11.861-1.852c11.176-2.689,17.728-11.518,25.716-18.279
				c0.796-0.219,1.588-0.443,2.38-0.676c13.13-20.469,24.427-41.857,28.613-66.047c1.232-7.088,2.142-16.627-11.865-11.664
				c-11.512,4.076-13.677-5.482-15.182-14.119c-0.04-1.697,0.133-3.379,0.443-5.053c3.855-14.137,11.414-27.273,10.816-42.686
				c-3.897,11.117-0.099,25.02-11.424,33.471c-10.822,1.828-11.365-6.516-12.17-13.248c-1.555-12.996-0.477-25.918,4-38.352
				c9.377-20.082,9.926-40.492,5.593-62.303c-4.563-22.945,1.073-44.633,17.358-62.594c-9.6,10.324-16.021,22.383-17.568,36.344
				c-1.135,10.172-5.066,9.271-11.306,4.311c-9.126-18.801-5.677-38.305-3.415-57.766c4.32-37.113,4.035-73.72-12.285-108.51
				c-2.312-4.93-6.151-8.784-9.022-13.311c-7.159-2.336-10.978-8.537-15.731-13.639c-19.057-20.463-41.467-27.398-68.188-16.961
				c-10.554,4.121-21.019,8.695-33.264,5.176c17.372-5.538,34.283-10.93,52.7-16.804c-11.309-7.759-24.897-5.028-36.266-13.71
				c17.163,0.844,31.511,6.407,47.087,10.064c-2.322-9.429-8.611-13.982-14.514-18.845c-0.563-1.317-1.077-2.704,0.525-3.616
				c0.563-0.319,1.442,0.279,2.227,1.076c21.553,28.433,55.917,40.688,82.732,66.283c-2.958-16.332-6.34-30.408-7.675-44.916
				c-0.967-10.514-5.817-22.91-22.298-15.287c-3.438,1.592-8.235,0.23-17.641,0.23c10.615-3.029,16.934-3.588,21.832-6.52
				c7.421-4.438-1.124-5.113-2.643-7.477c-1.646-1.461-1.709-2.994-0.191-4.59c10.328,2.959,15.196,12.395,22.721,20.326
				c6.99-12.42,7.009-27.59,23.195-39.48c-5.258,8.589-7.803,12.745-11.327,18.499c16.853-2.871,26.421-12.378,34.347-24.206
				c1.879-0.444,3.315,0.169,4.314,1.83c0.867,3.725-0.197,7.102-1.779,10.4c-0.803,1.586-1.83,3.035-2.97,4.394
				c-3.54,4.118-7.54,7.852-12.435,10.19c-20.637,9.848-27.869,23.603-18.9,54.804c7.6,26.442,16.662,52.304,20.561,79.809
				c3.248,22.905-6.619,45.087-0.875,68.765c13.865-14.131,30.356-24.242,49.078-30.834c5.477-1.928,11.901-4.564,10.545-12.438
				c-1.226-7.098-5.744-11.221-12.931-13.17c-5.349-1.455-10.521-1.633-15.949-1.476c-16.378,0.47-21.011-4.71-20.796-22.679
				c1.109-1.43,2.594-2.125,4.383-2.209c14.492,9.434,14.492,9.434,29.018,9.274c-7.155-13.778-15.146-26.034-25.793-36.255
				c-17.77-17.048-17.926-39.494-19.574-61.47c-0.307-4.064,1.3-9.66,7.138-7.147c9.069,3.907,11.063-4.572,16.083-7.77
				c3.089-1.092,4.89-0.201,4.995,3.27c-1.865,4.937-2.97,10.353-5.721,14.727c-12.861,20.433-12.713,27.063,4.194,49.932
				c-0.057-18.846,0.815-35.438,12.803-52.912c-2.865,16.053-6.095,28.439-7.04,40.996c-1.04,13.857,6.809,24.684,15.465,34.601
				c6.778-2.206,3.52-10.298,8.644-13.06c1.822,1.795,2.112,3.805,0.858,6.035c-3.449,14.352,4.63,23.466,14.802,33.115
				c6.426-11.363,16.752-19.1,18.898-32.904c4.524,9.773,0.195,16.686-5.236,22.207c-11.559,11.744-6.363,24.289-2.972,36.852
				c0.627,2.334,2.549,3.816,5.54,2.496c11.958-5.291,21.396-12.934,25.684-25.877c10.092-30.498,4.801-42.492-23.924-53.51
				c7.727-3.572,14.962,0.475,22.838,1.672c-4.319-20.137-16.574-34.325-32.191-48.477c11.515-1.166,13.696,9.525,22.368,12.211
				c0.373-5.81,0.759-11.847,1.147-17.877c3.278,36.602,31.319,68.422,19.504,108.232c12.752-8.806,18.481-19.81,18.734-39.641
				c0.365-27.695-3.597-54.829-13.895-80.838c-4.615-11.676-9.479-21.522-25.246-15.959c-4.131,1.461-9.389-0.256-15.921-0.614
				c8.023-1.778,14.543-2.45,20.446-4.708c9.278-3.548,2.612-6.314-1.026-8.961c-1.033-0.683-1.38-1.365-1.048-2.061
				c0.337-0.691,0.673-1.043,1.019-1.043c15.47,1.621,16.864,17.582,26.078,25.582l-0.339-0.447
				c1.992,12.471,15.021,21.117,10.41,37.738c11.494-7.408,20.637-13.301,29.771-19.198c0.902,2.025,0.782,3.981-0.371,5.876
				c-19.813,9.487-24.065,25.992-21.201,46.049c1.393,9.779,1.909,19.682,2.814,29.506c21.138-12.314,21.749-33.416,22.707-54.366
				c4.415,1.538,5.287,4.45,3.282,8.479c0.231,4.608-1.212,11.891,1.025,13.299c5.272,3.309,8.946-3.23,13.195-5.926
				c2.931-0.822,4.71-0.551,2.956,3.099c-3.306,2.974-6.613,5.946-11.505,10.351c5.877,0.328,10.445,0.588,15.006,0.84
				c1.464,0.72,1.94,1.401,1.422,2.055c-0.493,0.635-1,0.955-1.521,0.955c-21.756,1.805-34.53,16.313-44.569,33.256
				c-4.142,7.01,3.107,2.116,5.069,2.813c3.505-1.264,7.412-3.35,6.961,3.428c-9.255,1.641-17.328,6.546-22.818,13.352
				c-19.151,23.719-45.517,36.221-71.912,49.072c-16.651,8.107-33.165,16.627-46.234,30.301c-17.172,17.959-22,42.098-11.839,62.777
				c12.796-55.443,54.9-73.457,103.548-78.623c27.295-2.891,43.879-19.654,62.545-34.684c10.916-8.795,1.999-23.002,5.927-34.372
				c7.107,23.737,7.107,23.737-26.133,64.571c25.772,0.123,40.68-13.311,53.236-33.014c14.189-22.256-0.696-40.607-5.976-60.529
				c5.891,4.805,4.955,13.567,13.528,17.396c0.916-5.721,1.788-11.155,2.69-16.799c3.243,9.545,3.327,19.001,1.182,28.891
				c12.353-14.146,25.422-27.082,26.217-46.721c6.475-0.434,4.724,3.407,3.597,6.925c-0.294,2.792-0.583,5.583-1.041,9.925
				c9.875-6.308,11.521-16.191,17.821-24.197c1.492,26.252-24.883,32.824-34.524,53.217c19.652-8.461,42.259,2.828,57.844-15.54
				c-5.893,12.708-9.454,16.737-22.657,15.54c-26.853-2.436-41.07,10.039-48.461,34.559c-3.397,11.291-10.846,20.869-23.937,30.975
				c47.156-8.605,71.138-56.082,120.322-54.982c-9.264,6.68-19.313,6.123-26,13.648c7.108,1.941,13.838,3.787,20.573,5.627
				c0.977,4.881-2.837,5.592-5.962,6.928c-10.734,2.434-22.39-1.363-32.603,5.197c-8.614,5.535-7.229,9.422,1.464,12.723
				c4.067,2.781,10.234,3.703,9.607,10.682c-4.905,5.07-10.952,4.164-16.745,2.658c-16.397-4.264-30.306,1.955-44.278,9.324
				c-8.868,4.682-8.908,7.857-0.287,12.965c20.327,12.049,48.853,7.012,66.85-12.51c5.243-5.695,9.356-12.398,15.308-17.51
				c2.731-2.293,5.745-3.98,9.37-4.328C858.194,414.732,860.438,415.666,860.585,419.002z"/>
			<path d="M522.193,504.322c-4.601-12.986-10.121-25.668-9.443-39.92c1.606-33.738-12.245-60.117-38.059-81.209
				c-11.15-9.108-19.561-13.578-28.781-13.471c-3.887,0.171-7.799,1-11.729,2.346c-3.955,1.429-8.228,3.505-13.018,6.238
				c-14.604,8.324-29.099,16.807-44.979,22.473c15.707-5.898,30.263-14.115,44.759-22.51c4.429-2.563,8.845-4.699,13.238-6.201
				c4.192-1.516,8.028-2.303,11.729-2.346c8.809-0.387,17.484,2.627,25.939,10.852c3.984,3.869,8.66,6.613,14.502,3.371
				c-4.056-11.846-14.352-16.635-24.52-21.389c-17.994-8.406-19.262-12.574-8.186-28.72c1.957-3.796-0.133-4.003-3.063-3.468
				c-1.916,2.112-3.551,5.477-5.824,5.98c-2.259,0.506-2.485-3.021-2.523-5.357c-0.176-10.383,2.479-20.867-1.161-31.117
				l-0.574-0.673c-3.673-9.146-8.099-17.476-22.372-20.153c14.52,12.374,18.332,25.782,16.83,40.863
				c-0.443,4.438,2.009,11.8-2.908,12.706c-5.467,1.015-13.074-0.569-14.14-9.199c1.609-3.947-0.284-4.644-3.674-3.95
				c-7.722,19.768-14.147-3.629-21.478-0.596c3.211,9.161,11.666,12.061,19.398,13.716c13.617,2.913,19.843,11.599,24.154,23.628
				c1.335,3.725,3.724,5.695-1.475,7.854c-9.875,4.1-19.242,10.574-29.459,12.322c-7.809,1.34-10.053-10.764-17.188-14.111
				c-1.594-0.75-2.861-2.162-4.389-3.1c-14.27-8.729-15.16-19.96-6.771-33.439c4.893-7.861,11.879-15.035,10.822-25.965
				c-3.133,3.95-6.188,10.512-8.662,10.299c-3.94-0.34-7.494-5.189-11.211-8.131c21.397,17.357-9.809,30.58,0.518,49.895
				c-17.369-11.889-18.521-25.584-18.848-38.908c-0.277-11.336,0.196-22.572-4.1-33.342c-3.676-1.111-5.098,0.297-4.477,3.996
				c0.39,2.249,0.777,4.5,1.165,6.754c-0.22,0.799-0.437,1.598-0.653,2.393c-1.939,7.977-1.563,16.046-1.265,24.102
				c0.401,1.291,0.588,2.613,0.45,3.865c-0.141,1.275-0.257,2.545-0.267,3.817c0.029,0.091,0.06,0.183,0.087,0.274
				c1.395,1.584,2.448,3.466,3.013,5.52c0.393,1.462,0.529,2.924,0.458,4.387c5.935,1.379,10.898,5.533,13.417,10.98
				c7.739,5.662,15.507,12.614,19.795,21.179c4.759,9.505,2.608,21.054-6.996,26.681c-8.719,5.106-21.924,2.502-26.68-6.996
				c-0.47-0.938-1.823-2.762-2.196-3.316c-0.464-0.505-0.932-1.006-1.421-1.487c-1.352-1.329-2.742-2.622-4.203-3.833
				c-0.173-0.121-0.343-0.248-0.517-0.367c-3.29-2.304-5.907-5.292-7.582-8.645c-3.841-3.078-6.527-7.556-7.224-12.601
				c-4.785-2.44-9.176-5.844-13.751-8.505c-6.586-3.83-8.873-12.582-5.022-19.154c2.37-4.045,6.563-6.454,10.973-6.83
				c0.036-0.367,0.075-0.735,0.115-1.104c0.238-2.159,0.618-4.104,1.391-5.902c-5.197-6.362-8.862-13.886-11.969-21.844
				c-1.269-2.822-3.86-4.451-5.817-6.633c-0.774-0.761-1.469-1.643-2.358-2.227c-0.324-0.209-1.598,0.246-1.613,0.461
				c-0.766,10.227,2.019,19.844,6.309,28.839c5.18,10.853-1.699,9.111-7.996,8.484c-2.207-1.048-4.438-1.277-6.703-0.186
				l-0.398,0.614c-0.394,0-0.717,0.494-0.979,1.473c-0.236,0.886,0.355,1.59,1.774,2.115c6.16,8.213,7.661,19.141,15.388,26.445
				c0.93,4.672,4.784,5.175,8.455,5.938c13.625,6.445,18.265,18.414,21.28,34.053c-33.95-9.961-61.436-27.56-87.64-47.908
				c8.932,16.068,26.26,23.723,37.986,37.652c-12.977,4.95-24.012,1.056-35.11-1.244c7.237,10.637,18.736,13.338,29.374,10.166
				c22.92-6.834,34.523,11.459,50.727,20.99c-10.191,0.662-20.391,1.322-32.007,2.074c22.804,7.229,44.853-4.188,66.79,3.484
				c-5.99,8.283-13.021,14.279-22.347,17.412c-0.683,1.113-0.668,2.191,0.14,3.24c8.799-0.986,15.803-5.688,21.686-11.697
				c13.098-13.391,29.514-20.563,48.318-28.096c-4.862,12.764-10.873,23.096-9.896,35.254c2.98-4.549,4.802-9.469,6.749-14.338
				c6.9-17.26,16.102-33.266,36.348-35.82c20.991-2.652,28.945,15.182,39.817,28.564c22.417,27.588,16.918,62.379,26.78,94.107
				c-7.401-4.393-13.381-8.361-19.735-11.604c-9.667-4.941-19.357-9.855-25.976-18.775c-8.726-11.744,4.494-20.125,7.529-34.098
				c-7.059,7.648-11.229,12.176-16.084,17.439c-4.678-10.617-0.072-19.762,0.613-28.92c1.146-15.271,1.301-15.572-7.785-24.041
				c0.441,12.123,1.834,23.992-4.485,34.621c-5.067-2.408-9.817-4.809-14.689-6.922c-4.755-2.061-9.635-3.82-14.456-5.715
				c20.316,10.506,29.526,26.871,30.76,49.617c-14.662-2.246-28.809-4.854-43.195-3.723c-3.843,0.307-6.913-0.813-9.491-3.734
				c-12.976-14.686-30.104-18.883-48.644-18.018c-25.198,1.176-44.768-6.334-59.234-28.814
				c-18.547-28.82-47.183-36.002-81.415-31.283c59.261,15.076,68.214,20.645,75.78,47.176c-20.027,1.063-37.708-4.555-53.749-15.967
				c-1.831-1.568-3.526-1.432-5.089,0.396c-1.984,6.166-11.691,2.467-13.006,12.521c15.225-8.479,27.789-2.408,40.882,4.111
				c9.009,4.49,19.38,5.781,29.712,5.793c5.279,0,10.763-0.188,15.021,4.291c12.563,13.197,29.021,15.254,46.069,16.676
				c11.23,0.939,23.564,0.932,31.955,12.107c-5.643,1.934-10.237,3.23-14.611,5.063c-31.811,13.314-60.44,8.652-86.603-14.027
				c-7.558-6.557-16.233-12.223-26.597-14.061c-1.27,3.969,0.75,5.617,4.337,6.164c12.46,2.508,9.581,7.775,0.509,14.816
				c25.226-11.586,32.665,15.357,50.409,18.129c-19.683,3.598-37.578,1.914-54.681-9c-22.221-14.178-46.145-23.998-73.574-17.477
				c23.561,0.938,45.561,6.295,65.325,21.809c-11.164,2.422-19.718,7.811-28.193,13.359c-4.304,2.939-12.279-3.74-14.216,5.418
				c2.222,0.316,4.443,0.629,6.666,0.943c2.479,1.957,5.002,1.617,7.546,0.154c21.507-15.174,55.192-15.984,57.856-1.398
				c-0.705,4.715-8.249,6.039-7.191,12.963c21.558-14.07,27.227-15.051,41.969-7.791c-0.282,2.592,0.996,3.697,3.483,3.645
				c1.425-0.419,2.854-0.836,4.28-1.251c9.558-9.099,20.78-10.573,25.048-3.233c10.598,4.727,14.608-1.318,16.823-10.309
				c-3.072-3.935-6.251-5.502-9.487-5.819c-3.078,0.522-6.159,1.027-9.242,1.519c-4.527,1.475-9.074,3.365-13.51,2.828
				c-0.905-0.109-1.289,0.479-1.064,0.973c1.015,2.182-2.312-1.5,0.121-1.549c4.821-0.743,9.64-1.484,14.453-2.252
				c3.104-1.011,6.198-1.817,9.242-1.519c12.506-2.122,24.958-4.563,37.29-7.87c19.873-5.334,40.055-4.158,60.455-1.281
				c25.952,3.66,46.887,17.119,67.949,30.912c5.625,3.688,12.021,7.402,18.088,2.02
				C526.705,516.498,524.178,509.928,522.193,504.322z"/>
			<path fill-rule="evenodd" clip-rule="evenodd" d="M330.3,513.533c7.216,0.404,10.97-4.609,14.821-9.48
				c3.149-8.018,9.643-11.703,17.49-14.037c54.673-16.25,102.852-3.457,145.702,32.65c6.144,5.178,11.411,12.549,8.538,20.555
				c-8.891,24.75-0.024,48.686,2.021,72.871c1.568,18.512-0.094,36.545-9.707,52.205c-12.479,20.322-32.71,26.529-55.15,25.438
				c6.186,14.369-8.578,21.07-12.947,31.787c-15.867,12.592-15.867,12.592-23.99,3.92c9.51-7.957,20.428-14.445,27.584-26.621
				c-22.084-8.037-38.662,5.525-58.743,14.557c15.621-28.557,40.597-32.139,66.175-33.764c35.59-2.273,50.984-17.295,51.133-52.793
				c0.104-24.557,2.287-49.266-2.257-73.668c-4.352-23.348-46.366-53.357-69.602-49.607c-12.749,2.053-17.278,9.898-12.771,22.143
				c2.565,6.969,9.477,12.268,8.273,21.504c-6.137-12.387-20.179-19.814-16.965-37.432c-9.611,8.926-8.043,20.781-14.685,28.531
				c-3.201,0.611-5.182,0.088-3.54-3.807c2.353-6.795,4.701-13.586,7.05-20.377c-2.143-4.5,1.802-5.912,4.138-8.141
				c2.951-2.652,5.896-5.307,10.215-9.203c-28.496-4.422-49.52,2.609-68.987,23.078c-21.108,22.201-11.804,44.352-5.564,67.885
				c-4.845-12.512-12.536-22.477-18.829-37.262c-9.326,17.523-21.301,30.201-32.084,43.861c-8.199,10.389,3.994,18.816,2.869,29.789
				c-9.534-8.719-10.86-19.066-10.355-30.639c-19.848,7.988-40.475,11.373-58.691,26.615c7.529-13.422,7.529-13.422,33.107-23.66
				c-22.248-0.865-39.184-1.477-56.127,3.125c18.016-13.709,38.926-10.691,59.05-9.994c18.827,0.662,31.722-6.842,42.045-25.016
				c-50.552,2.025-101.429-10.24-143.555,29.527c7.495-18.506,14.989-24.6,42.641-36.467c-14.261,3.754-19.488-11.406-33.947-13.824
				c4.386-1.074,6.624-2.436,7.942-1.82c27.688,12.842,57.844,6.531,86.596,11.203c31.072,5.057,53.764-6.705,65.51-37.043
				C325.684,517.582,328.395,515.717,330.3,513.533z"/>
			<path fill-rule="evenodd" clip-rule="evenodd" fill="#C9CFCB" d="M438.878,723.414c-4.817-8.664,4.804-9.869,7.888-13.871
				c7.607-9.895,11.307-16.803-8.39-16.133c12.577-8.51,24.968-2.857,36.407-6.354c21.207-6.492,33.158-18.822,37.066-40.617
				c3.905-21.779-0.288-42.973-2.706-64.283c-1.155-10.191-3.594-20.451,0.945-29.975c5.421-11.373,2.944-19.65-6.28-27.604
				c-41.387-35.686-88.029-47.115-141.004-32.158c-7.501,2.119-10.319,10.07-17.684,11.633c-4.043-8.066-9.938-3.648-15.461-2.4
				c-2.893,0.656-5.892,1.127-8.848,1.156c-4.143,0.041-8.287-0.404-12.584-1.658c30.931-2.533,58.184-19.148,89.764-20.547
				c40.285-1.779,74.798,11.082,107.181,33.023c4.522,3.064,8.958,11.26,14.673,6.109c5.054-4.557-1.591-10.826-3.777-15.912
				c-5.756-13.408-9.402-27.1-8.687-41.783c1.546-31.965-13.474-56.074-35.897-76.979c-14.018-13.072-28.842-15.514-45.65-6.07
				c-10.393,5.838-20.887,11.512-31.46,17.021c-10.652,5.551-21.772,9.537-38.433,8.713c19.861-4.295,34.607-10.549,47.563-19.85
				c27.664-19.867,54.933-26.01,82.848-0.932l-0.455-0.342c2.185,4.318,5.113,8.195,8.878,11.074
				c4.388,3.35,5.593,12.902,12.712,9.887c5.709-2.406,4.386-10.668,5.009-16.285c2.903-25.99-2.608-50.764-12.432-74.729
				c-5.687-2.774-7.897-7.249-6.566-13.448c18.37,9.649,19.414,29.518,25.091,45.729c8.455,24.127,4.622,49.625,1.617,74.598
				c-2.439,20.238-4.342,40.445,1.824,60.416c13.209,6.674,10.098,21.043,11.887,31.285c2.064,11.816,5.07,26.033-3.516,37.857
				c-2.552-0.746-5.501-5.721-7.572,0.699c-2.437,7.559-5.749,14.898-5.611,25.412c-0.005,0.078,3.533-2.729,1.205-2.121
				c-4.402,1.146,2.225-14.992,8.873-21.564c4.189,2.137,3.793,5.41,2.238,8.963c-2.878,16.816-6.406,33.609-1.344,50.629
				c0.084,0.285,1.055,0.609,1.415,0.457c1.013-0.434,1.919-1.107,2.864-1.682c9.688,2.662,4.979,9.363,4.194,14.961
				c-0.354,0.994-0.561,2.006-0.618,3.057c-3.482,9.68,2.631,16.998,5.919,25.137c4.435,10.971,10.909,22.078,1.898,33.908
				c-5.326,7.742-8.54,17.381-18.333,21.23c-3.373,1.322-7.004,2.328-10.023-0.605c-2.609-2.541-1.061-5.582-0.099-8.307
				c2.142-6.074,5.937-11.74,3.89-20.613c-8.063,7.129-9.338,16.945-14.32,24.342c-2.982,4.432-5.865,10.201-12.054,9.172
				c-7.526-1.252-3.55-7.277-3.192-11.549c0.645-7.717-3.744-7.805-9.016-5.744c-8.415,3.287-15.646,8.096-21.759,15.113
				C453.737,716.877,449.078,724.928,438.878,723.414z"/>
			<path fill-rule="evenodd" clip-rule="evenodd" d="M438.878,723.414c17.024-14.701,29.189-36.943,57.261-34.613
				c4.459,7.588-3.879,14.455-7.639,25.613c10.41-7.85,15.461-14.516,17.436-23.488c1.423-6.439,3.137-12.781,8.946-16.934
				c2.246-1.613,3.771-4.99,7.36-3.471c3.71,1.57,4.959,4.477,5.004,8.58c0.127,11.297-3.928,20.568-14.971,28.928
				c17.705,0.111,19.988-13.734,27.157-21.891c9.88,10.127,4.22,29.867-10.473,36.564l-0.43-0.395
				c0.244-3.904,0.028-7.697-5.483-5.891c-14.904,4.887-37.475-2.553-38.707,28.119c-0.119-21.846-8.062-16.982-17.318-10.494
				c-7.756,5.441-11.091,13.787-16.029,22.229c-4.07-28.648,30.366-33.498,34.869-57c-27.324,22.039-53.676,43.295-80.027,64.553
				c1.401-8.174,10.554-9.367,10.766-18.246c-20.951,1.605-41.892,3.203-62.83,4.811c-0.313-1.502-0.627-2.992-0.938-4.49
				c22.694-1.283,43.275-9.527,64.247-16.457C426.779,736.242,431.862,726.328,438.878,723.414z"/>
			<path fill-rule="evenodd" clip-rule="evenodd" d="M500.063,313.55c19.166,33.128,17.937,68.075,9.544,107.163
				c-7.846-14.879-19.849-23.164-23.711-37.109c8.609,3.438,11.541,12.775,19.865,18.766c8.254-22.789,4.775-44.692-0.566-66.837
				C503.436,328.238,498.078,321.701,500.063,313.55z"/>
			<path fill-rule="evenodd" clip-rule="evenodd" fill="#BD953B" d="M297.941,289.596c-1.002-0.883-3.111-1.236-1.579-3.305
				c16.444-11.705,31.253-4.9,45.877,4.049l-0.372-0.348c-2.797,20.715-11.982,25.229-28.85,14.072
				C307.131,300.174,303.36,294.01,297.941,289.596z"/>
			<path fill-rule="evenodd" clip-rule="evenodd" fill="#BC9436" d="M717.89,624.383c-1.773-21.516,3.799-29.682,25.815-37.842
				C745.331,606.629,738.646,616.422,717.89,624.383z"/>
			<path fill-rule="evenodd" clip-rule="evenodd" fill="#BB9133" d="M409.328,437.318c2.936,1.828,5.657,3.09,7.848,4.961
				c7.581,6.486,15.899,16.117,8.73,24.053c-6.52,7.227-18.059,0.947-25.746-5.01c-4.776-3.695-10.564-9.1,2.252-10.205
				C411.401,450.346,402.937,441.439,409.328,437.318z"/>
			<path fill-rule="evenodd" clip-rule="evenodd" fill="#BC9334" d="M403.262,336.801c10.265,0.393,17.837,2.41,18.09,13.9
				c0.15,6.862-3.651,14.242-8.553,13.736c-5.076-0.529-8.654-9.768-16.686-6.037c0.96-6.549,0.374-12.527-6.035-16.365
				C393.604,336.869,399.138,337.252,403.262,336.801z"/>
			<path fill-rule="evenodd" clip-rule="evenodd" fill="#BB9133" d="M383.483,596.285c-6.908-17.561-12.401-9.938-17.554-1.463
				c-5.384-18.818-3.051-24.67,14.063-37.008C385.706,568.549,388.996,579.492,383.483,596.285z"/>
			<path fill-rule="evenodd" clip-rule="evenodd" fill="#AA996D" d="M565.239,242.996c-0.907-1.281-1.823-2.559-2.729-3.842
				c-7.456-13.309-0.634-29.433-8.406-42.681c-1.076,0.072-2.075-0.173-2.981-0.751c7.671-9.377,11.955-6.347,15.809,3.559
				c4.103,10.588,0.64,21.383,2.362,32.063c0.839,0.069,2.183,0.584,2.604,0.168c4.773-4.758,10.123-8.215,17.152-7.404
				c0.613,0.074,1.671,3.344,1.205,4.648c-2.427,6.73-7.573,10.486-14.479,11.971C572.265,241.482,568.75,242.237,565.239,242.996z"
				/>
			<path fill-rule="evenodd" clip-rule="evenodd" fill="#BD963D" d="M712.624,365.311c-8.46,14.156-20.566,19.16-36.191,18.809
				C682.985,365.51,690.735,361.428,712.624,365.311z"/>
			<path fill-rule="evenodd" clip-rule="evenodd" fill="#C29D4C" d="M173.228,486.836c10.4-9.949,21.436-11.363,33.63-3.262
				c2.923,1.941,6.862,3.264,4.831,7.951c-1.771,4.086-8.325,8.318-8.97,7.279C195.662,487.432,180.709,497.344,173.228,486.836z"/>
			<path fill-rule="evenodd" clip-rule="evenodd" fill="#BA9135" d="M360.563,236.501c9.707-1.401,10.402,10.97,19.629,10.271
				c2.793-0.211,3.799,7.741,1.982,12.609c-1.355,3.643-3.991,7.488-7.33,4.42c-4.463-4.1-14.024-1.344-14.256-10.592
				C360.445,247.615,360.563,242.014,360.563,236.501z"/>
			<path fill-rule="evenodd" clip-rule="evenodd" fill="#BC9339" d="M360.359,446.1c0.654-7.818,4.789-14.262,9.382-20.178
				c2.941-3.791,6.653-11.549,11.666-7.664c6.926,5.373,3.19,14.033,0.452,21.219c-1.898,4.998-2.609,11.426-9.125,1.873
				C369.501,436.607,366.633,448.471,360.359,446.1z"/>
			<path fill-rule="evenodd" clip-rule="evenodd" fill="#BD963F" d="M850.64,512.803c-3.745,7.652-15.724-1.105-15.216,11.84
				c0.162,4.092-7.215,0.609-10.297-1.219c-4.511-2.674-9.433-6.482-8.777-12.289c0.429-3.773,5.368-3.904,8.903-4.201
				C834.077,506.18,842.625,506.633,850.64,512.803z"/>
			<path fill-rule="evenodd" clip-rule="evenodd" fill="#9B8A5D" d="M290.717,321.878c-2.238-0.058-4.477-0.112-6.709-0.18
				c-1.938-4.282,1.232-13.765-9.955-8.589c-2.508,1.16-12.987,0.266-7.499-8.293c1.15-1.795,5.271-1.824,3.17-5.928
				c7.479,0.935,5.083-12.336,12.709-9.494c5.44,2.028,11.132,11.756,8.407,13.204C277.01,309.969,292.04,315.727,290.717,321.878z"
				/>
			<path fill-rule="evenodd" clip-rule="evenodd" fill="#85918A" d="M248.332,531.617c-11.762,2.365-22.143,10.926-36.875,8.643
				c5.642-7.363,15.685-2.244,19.5-11.068c-7.168-3.461-14.83-0.717-22.062-1.719c16.308-9.6,16.821-9.574,42.304,2.066
				C251.034,531.33,250.076,532.02,248.332,531.617z"/>
			<path fill-rule="evenodd" clip-rule="evenodd" fill="#BD953B" d="M655.578,253.465c14.704,11.008,15.068,25.131,17.927,41.238
				C655.739,284.967,652.072,272.096,655.578,253.465z"/>
			<path fill-rule="evenodd" clip-rule="evenodd" fill="#BE9741" d="M689.047,449.752c-2.597,7.539-8.42,11.582-15.161,13.592
				c-6.186,1.852-15.689,7.053-18.181-1.461c-1.887-6.461,7.559-11.166,14.477-12.635
				C676.131,447.988,682.641,445.904,689.047,449.752z"/>
			<path fill-rule="evenodd" clip-rule="evenodd" fill="#778680" d="M428.074,232.844c-0.917,0.85-1.837,1.693-2.752,2.54
				c-18.537,1.33-37.512,8.308-57.57-5.632c15.093,1.826,27.577,4.646,40.453,1.578c3.684-6.163-8.047-8.574-3.709-16.26
				C410.226,224.481,420.607,226.531,428.074,232.844z"/>
			<path fill-rule="evenodd" clip-rule="evenodd" fill="#BB9235" d="M641.254,575.361c-2.224-18.766,6.871-26.523,22.32-29.721
				C662.51,561.598,660.273,564.697,641.254,575.361z"/>
			<path fill-rule="evenodd" clip-rule="evenodd" fill="#A89F81" d="M605.352,236.891c-2.02,5.629-4.554,9.283-8.729,1.526
				c-6.622-12.301-1.997-24.577,2.043-36.051c0.837-2.38,10.84-1.526,17.074-2.212c-0.388,9.51-7.869,10.588-12.781,14.121
				c-7.047,5.057-7.546,10.035,0.076,14.998C607.357,230.731,607.126,233.576,605.352,236.891z"/>
			<path fill-rule="evenodd" clip-rule="evenodd" fill="#97895D" d="M882.483,458.932c-2.499-4.059-7.02-2.182-10.418-3.555
				c2.696-1.047,5.505-3.221,8.024-2.924c7.897,0.926,21.172-4.996,22.282,5.012c1.112,10.025-9.958,16.121-20.149,15.676
				C872.41,467.018,894.538,465.068,882.483,458.932z"/>
			<path fill-rule="evenodd" clip-rule="evenodd" fill="#BB9237" d="M899.197,574.412c13.604,6.92,18.006,18.109,18.399,32.4
				C900.233,600.564,896.018,593.182,899.197,574.412z"/>
			<path fill-rule="evenodd" clip-rule="evenodd" fill="#A38D56" d="M299.799,352.34c2.828,1.981,5.652,3.964,8.467,5.941
				c-2.72,5.233,3.62,6.719,4.354,10.524c0.676,3.489-1.208,5.937-3.985,7.112c-4.236,1.789-3.658-1.26-4.601-4.27
				c-1.414-4.52-6.075-0.555-9.196-1.6c-2.719-0.906-8.021-2.541-6.524-4.076c12.728-13.037-8.327-9.712-7.461-17.852
				C287.193,349.532,293.496,350.937,299.799,352.34z"/>
			<path fill-rule="evenodd" clip-rule="evenodd" fill="#BD953D" d="M710.337,573.848c-12.599-10.525-16.907-21.023-14.133-36.5
				C709.871,546.287,714.897,556.498,710.337,573.848z"/>
			<path fill-rule="evenodd" clip-rule="evenodd" fill="#7B8A82" d="M842.456,441.432c4.392-5.951,12.24-2.383,17.36-6.309
				c16.063,9.225,18.642-11.596,29.366-14.012c3.772,6.027-23.277,16.84,9.594,16.953
				C876.41,449.979,859.023,436.854,842.456,441.432z"/>
			<path fill-rule="evenodd" clip-rule="evenodd" fill="#BF9844" d="M338.532,632.332c-13.433-6.137-15.698-16.26-13.587-28.121
				c0.379-2.133,2.424-4.732,5.098-2.795C340.404,608.912,342.984,618.936,338.532,632.332z"/>
			<path fill-rule="evenodd" clip-rule="evenodd" fill="#BB9336" d="M307.127,613.67c-3.631-16.57-3.54-28.711,11.838-36.875
				C323.386,592.053,318.783,602.576,307.127,613.67z"/>
			<path fill-rule="evenodd" clip-rule="evenodd" fill="#BB9238" d="M832.777,322.717c-5.005,17.469-15.549,22.383-30.877,23.25
				C805.912,330.246,816.821,325.8,832.777,322.717z"/>
			<path fill-rule="evenodd" clip-rule="evenodd" fill="#BF9840" d="M853.842,591.352c6.97,13.422,10.377,24.24,2.893,37.209
				C844.326,617.293,844.518,606.129,853.842,591.352z"/>
			<path fill-rule="evenodd" clip-rule="evenodd" fill="#63736C" d="M734.293,297.321c-0.981-1.034-1.971-2.065-2.956-3.099
				c10.447-12.098,5.373-25.926,3.979-39.597c5.877,3.978,5.653,10.368,7.713,16.005c2.464-4.912,4.779-9.535,7.103-14.158
				C750.455,272.477,746.41,286.573,734.293,297.321z"/>
			<path fill-rule="evenodd" clip-rule="evenodd" fill="#BD953D" d="M644.48,404.459c15.334-9.391,27.06-7.516,39.4,2.605
				C670.331,416.58,659.033,410.693,644.48,404.459z"/>
			<path fill-rule="evenodd" clip-rule="evenodd" fill="#817F62" d="M197.309,510.445c2.517,0.049,5.033,0.098,7.55,0.15
				c-1.89,6.096-13.747,8.658-4.636,19.246c3.352,3.895-4.039,12.6-12.186,17.5C185.123,532.383,185.085,519.988,197.309,510.445z"
				/>
			<path fill-rule="evenodd" clip-rule="evenodd" fill="#BB9237" d="M596.921,259.064c-0.291,15.796-5.844,24.658-20.132,28.598
				C574.939,272.35,581.795,264.232,596.921,259.064z"/>
			<path fill-rule="evenodd" clip-rule="evenodd" fill="#C0983E" d="M215.564,416.66c0.201-3.197-10.314-3.125-2.547-8.701
				c9.718-6.988,19.502-7.836,30.25-0.617c-6.828,11.277-17.973,8.615-28.039,9.08L215.564,416.66z"/>
			<path fill-rule="evenodd" clip-rule="evenodd" fill="#B7B39B" d="M240.727,456.283c1.445,2.057,2.893,4.109,4.339,6.164
				c-12.777,10.646-22.253,4.857-31.247-6.74C223.172,451.828,231.949,449.289,240.727,456.283z"/>
			<path fill-rule="evenodd" clip-rule="evenodd" fill="#B88E32" d="M422.17,399.211c13.6,7.637,17.846,16.926,13.077,30.123
				C419.777,421.908,418.757,419.723,422.17,399.211z"/>
			<path fill-rule="evenodd" clip-rule="evenodd" fill="#BF9944" d="M268.285,612.109c7.607,12.264,5.648,22.551-0.857,32.912
				C257.126,632.09,257.154,628.826,268.285,612.109z"/>
			<path fill-rule="evenodd" clip-rule="evenodd" fill="#BC943B" d="M741.348,319.513c-3.75,14.711-13.992,16.61-25.24,16.224
				c-2.273-0.076-4.145-2.668-2.236-5.318C720.324,321.438,728.91,317.463,741.348,319.513z"/>
			<path fill-rule="evenodd" clip-rule="evenodd" fill="#BC933A" d="M613.382,274.098c4.301,8.577,22.869-1.391,20.333,15.561
				c-0.534,3.617-2.52,8.296-6.426,7.001C617.543,293.422,611.552,286.531,613.382,274.098z"/>
			<path fill-rule="evenodd" clip-rule="evenodd" fill="#C0983C" d="M868.131,488.514c-8.862,15.211-21.191,15.447-36.832,8.6
				c11.542-11.564,24.282-10.119,37.12-8.238C868.419,488.879,868.131,488.514,868.131,488.514z"/>
			<path fill-rule="evenodd" clip-rule="evenodd" fill="#BD953D" d="M408.818,582.025c-9.449-11.85-8.921-21.463-0.7-30.727
				c1.751-1.973,4.346-2.348,5.858,0.117C420.805,562.525,415.107,571.457,408.818,582.025z"/>
			<path fill-rule="evenodd" clip-rule="evenodd" fill="#BC943B" d="M441.075,299.875h-0.761c0,0,0.18-0.688,0.184-0.682
				c0.602-2.267,1.747-4.551,1.693-6.807c-0.195-7.998-0.185-16.864,8.906-18.948c4.146-0.952,6.055,6.499,5.805,11.189
				C456.387,294.336,453.943,302.699,441.075,299.875z"/>
			<path fill-rule="evenodd" clip-rule="evenodd" fill="#A59B75" d="M875.331,489.127c1.114-1.191,2.226-2.381,3.344-3.561
				c6.835,1.496,13.521,4.619,20.826,1.75c-4.193-3.674-12.147,0.016-14.407-7.326c14.801-3.922,14.801-3.922,27.557,8.543
				C899.655,492.504,887.739,495.945,875.331,489.127z"/>
			<path fill-rule="evenodd" clip-rule="evenodd" fill="#BB9238" d="M501.303,221.846c-2.862-0.652-3.483-0.633-3.906-0.912
				c-8.988-6.074-14.588-13.807-11.67-25.296c0.697-2.739,3.27-3.495,5.529-2.12C501.834,199.954,503.436,209.645,501.303,221.846z"
				/>
			<path fill-rule="evenodd" clip-rule="evenodd" fill="#BF9946" d="M445.063,540.416c-12.702-4.584-19.111-10.615-18.961-21.535
				c0.034-2.283,2.416-4.334,5.089-3.27C441.715,519.814,445.813,527.725,445.063,540.416z"/>
			<path fill-rule="evenodd" clip-rule="evenodd" fill="#BD963E" d="M791.159,642.432c-0.817-0.17-1.499-0.107-1.682-0.383
				c-7.047-10.371-3.809-19.975,2.37-29.271c1.543-2.324,4.899-2.881,5.714-0.781C802.02,623.43,799.598,633.689,791.159,642.432z"
				/>
			<path fill-rule="evenodd" clip-rule="evenodd" fill="#BC943C" d="M797.952,552.373c-17.253-2.289-14.753,9.369-14.135,21.395
				c-9.77-8.316-16.638-18.471-11.804-25.6C777.13,540.617,788.294,546.396,797.952,552.373z"/>
			<path fill-rule="evenodd" clip-rule="evenodd" fill="#BB9239" d="M860.214,596.244c16.905,1.809,21.078,12.516,25.604,25.23
				C869.461,620.506,866.033,609.059,860.214,596.244z"/>
			<path fill-rule="evenodd" clip-rule="evenodd" fill="#BD943D" d="M165.828,611.393c3.402-19.625,3.965-20.344,19.488-26.586
				C182.623,601.52,181.349,603.332,165.828,611.393z"/>
			<path fill-rule="evenodd" clip-rule="evenodd" fill="#BB9238" d="M194.248,459.635c0.805-16.488,10.23-20.602,23.065-21.729
				C213.188,453.756,213.188,453.756,194.248,459.635z"/>
			<path fill-rule="evenodd" clip-rule="evenodd" fill="#918561" d="M860.585,419.002c-1.626-0.605-3.251-1.209-4.876-1.811
				c-0.72-1.475-0.81-2.988-0.319-4.553c4.563-7.973,6.161-18.359,17.09-21.197c0.782-0.107,1.57-0.201,2.352-0.297
				c9.341,8.023-3.834,11.186-3.807,17.098c5.376,2.16,11.816-1.992,17.938,4.193c-8.848,3.01-19.621-2.141-24.957,7.586
				l0.354-0.359C863.098,419.443,861.84,419.221,860.585,419.002z"/>
			<path fill-rule="evenodd" clip-rule="evenodd" fill="#BA9138" d="M622.567,366.783c-0.422-15.145,8.265-20.875,20.672-25.119
				C644.81,356.889,636.278,362.736,622.567,366.783z"/>
			<path fill-rule="evenodd" clip-rule="evenodd" fill="#BB9237" d="M733.578,361.104c0.605-6.624,2.976-13.839,8.769-14.162
				c5.035-0.278,6.765,7.141,5.836,12.372c-1.021,5.762-3.307,12.889-9.791,12.867C732.459,372.162,734.444,364.988,733.578,361.104
				z"/>
			<path fill-rule="evenodd" clip-rule="evenodd" fill="#B5A172" d="M301.247,430.107c11.219-8.508,20.104-11.639,31.979-9.23
				C326.475,435.195,316.638,435.504,301.247,430.107z"/>
			<path fill-rule="evenodd" clip-rule="evenodd" fill="#62746A" d="M345.551,279.59c-2.732-0.055-4.021,1.509-4.475,3.999
				c-6.865-6.544-13.728-13.085-21.53-20.522c10.874-1.648,13.634,9.239,21.05,10.881c3.324-6.602-3.783-12.141-2.321-20.834
				C346.57,261.904,347.527,270.344,345.551,279.59z"/>
			<path fill-rule="evenodd" clip-rule="evenodd" fill="#9F8F65" d="M643.964,207.631c-0.219,1.037-0.203,2.072,0.035,3.104
				c-7.411,2.244-13.936,10.755-23.073,2.857c1.198-5.389,7.188-4.535,10.476-7.818c-2.253-3.879-9.122-1.198-10.438-7.419
				c0.406-0.274,1.231-1.327,2.006-1.295C631.527,197.423,638.699,200.678,643.964,207.631z"/>
			<path fill-rule="evenodd" clip-rule="evenodd" fill="#BE9743" d="M306.87,481.869c11.035-11.193,21.319-8.65,34.374-7.432
				C330.586,485.57,320.788,486.098,306.87,481.869z"/>
			<path fill-rule="evenodd" clip-rule="evenodd" fill="#A49161" d="M297.488,514.373c1.172,1.209,2.339,2.418,3.497,3.635
				c-3.509,7.143-12.408,5.213-17.163,10.232l0.311-0.285c-11.428-1.232-4.055,12.275-11.779,14.432
				c-4.589-4.215-0.975-9.988-2.229-14.854l-0.256,0.324C279.076,523.361,288.281,518.871,297.488,514.373z"/>
			<path fill-rule="evenodd" clip-rule="evenodd" fill="#BC943B" d="M677.213,393.221c12.409-7.834,21.476-7.68,31.266,0.617
				C697.93,402.525,688.559,401.266,677.213,393.221z"/>
			<path fill-rule="evenodd" clip-rule="evenodd" fill="#C09841" d="M818.293,367.133c-10.411,8.359-20.393,8.82-33.834,4.354
				C796.177,362.28,805.841,359.301,818.293,367.133z"/>
			<path fill-rule="evenodd" clip-rule="evenodd" fill="#BC943F" d="M651.813,452.793c-9.264,12.992-19.52,18.477-34.863,16.992
				C626.607,459.162,637.792,455.662,651.813,452.793z"/>
			<path fill-rule="evenodd" clip-rule="evenodd" fill="#BD9640" d="M591.367,435.07c11.084-13.727,13.126-14.598,31.544-13.887
				C614.587,431.324,604.81,435.545,591.367,435.07z"/>
			<path fill-rule="evenodd" clip-rule="evenodd" fill="#BF9742" d="M271.27,400.457c12.479-7.068,22.42-5.801,36.019,4.381
				C292.853,406.176,282.726,409.002,271.27,400.457z"/>
			<path fill-rule="evenodd" clip-rule="evenodd" fill="#B98F33" d="M446.701,220.615c-3.389,6.117-7.53,1.855-10.779,0.881
				c-6.26-1.887-13.373-5.18-12.305-12.641c0.697-4.867,7.069-2.246,10.588-1.116C440.512,209.762,445.45,213.672,446.701,220.615z"
				/>
			<path fill-rule="evenodd" clip-rule="evenodd" fill="#8A866D" d="M871.327,509.572c-1.175-1.154-2.353-2.309-3.52-3.465
				c7.995-6.346,18.089-4.301,27.077-6.67c1.632-0.436,4.124,0.869,3.162,2.762c-0.975,1.904-3.52,2.998-5.381,4.443l0.303-0.285
				c-12.788-3.627-10.642,13.01-18.588,14.99C866.978,518.09,877.689,512.332,871.327,509.572z"/>
			<path fill-rule="evenodd" clip-rule="evenodd" fill="#BE953F" d="M724.092,487.926c-1.383,6.627,8.67,6.191,6.888,13.961
				c-10.015,0.803-18.446-3.68-27.259-10.627c7.019-7.305,14.479-0.234,20.567-3.141L724.092,487.926z"/>
			<path fill-rule="evenodd" clip-rule="evenodd" fill="#BD953A" d="M734.865,455.465c-5.617,14.213-16.743,12.084-29.252,10.693
				c6.497-16.967,19.664-8.496,29.443-10.434C735.057,455.723,734.865,455.465,734.865,455.465z"/>
			<path fill-rule="evenodd" clip-rule="evenodd" fill="#55695E" d="M752.827,574.887c3.54,2.195,7.082,4.4,10.622,6.598
				c-8.743,8.984-4.406,18.895-1.521,30.42C746.471,601.338,753.772,587.107,752.827,574.887z"/>
			<path fill-rule="evenodd" clip-rule="evenodd" fill="#5C6E64" d="M391.682,538.484c1.183,1.268,2.363,2.535,3.54,3.803
				c-9.751,14.502-30.612,7.391-40.156,22.395c2.506-11.668,11.716-14.379,20.271-16.928
				C381.727,545.857,387.736,544.268,391.682,538.484z"/>
			<path fill-rule="evenodd" clip-rule="evenodd" fill="#BA913A" d="M836.322,591.688c-12.983,3.33-22.569,0.439-32.171-9.311
				C817.47,579.535,827.49,580.977,836.322,591.688z"/>
			<path fill-rule="evenodd" clip-rule="evenodd" fill="#AD9D74" d="M709.514,257.182c0.126-1.958,0.245-3.914,0.371-5.871
				c4.025-10.533,13.98-2.02,22.073-8.214C727.209,256.063,724.547,267.027,709.514,257.182z"/>
			<path fill-rule="evenodd" clip-rule="evenodd" fill="#B59C65" d="M717.116,286.85c-1.099-2.816-2.197-5.632-3.287-8.461
				c1.667-12.161,14.716-0.941,18.355-9.689C732.804,280.088,728.876,286.854,717.116,286.85z"/>
			<path fill-rule="evenodd" clip-rule="evenodd" fill="#C3A363" d="M636.75,246.477c-1.591,5.137-5.229,6.544-8.564,6.418
				c-6.068-0.229-9.454-4.26-10.157-10.234c-0.598-5.045,0.717-10.354,5.476-11.927c4.421-1.463,6.44,3.88,5.217,6.782
				C625.073,246.174,636.074,242.57,636.75,246.477z"/>
			<path fill-rule="evenodd" clip-rule="evenodd" fill="#BD9F5E" d="M804.934,465.463c3.864-1.422,7.735-2.852,11.584-4.266
				c6.779,1.865,7.167,5.131,2.168,9.678c-4.413,4.01-9.382,9.373-15.329,6.189C796.925,473.619,808.697,470.078,804.934,465.463z"
				/>
			<path fill-rule="evenodd" clip-rule="evenodd" fill="#54665C" d="M402.869,509.967c-1.378,2.715-2.758,5.426-4.138,8.141
				c-11.315-1.877-22.149-0.443-36.072,8.363C375.57,510.254,388.893,509.191,402.869,509.967z"/>
			<path fill-rule="evenodd" clip-rule="evenodd" fill="#BB9237" d="M470.24,354.006c5.773-12.033,14.438-14.566,27.309-11.906
				C490.162,351.791,482.305,356.142,470.24,354.006z"/>
			<path fill-rule="evenodd" clip-rule="evenodd" fill="#BA9139" d="M714.504,587.686c2.725-13.838,8.34-19.945,18.104-21.793
				c0.514-0.098,2.363,2.67,2.209,3.934C733.514,580.564,725.005,582.76,714.504,587.686z"/>
			<path fill-rule="evenodd" clip-rule="evenodd" fill="#BD9438" d="M670.042,233.213c-0.185-6.334-2.694-12.737,0.78-19.674
				c10.854,4.164,12.002,13.68,8.945,21.584c-2.998,7.742-6.15-3.132-10.071-2.357L670.042,233.213z"/>
			<path fill-rule="evenodd" clip-rule="evenodd" fill="#7E908C" d="M792.714,319.562c-1.195-2.31-2.4-4.618-3.597-6.929
				c0-8.738,0-17.479,0-29.451C796.782,296.865,803.075,307.408,792.714,319.562z"/>
			<path fill-rule="evenodd" clip-rule="evenodd" fill="#A49161" d="M248.332,531.617c0.957-0.691,1.915-1.383,2.87-2.078
				c6.159-1.182,11.688-9.445,18.657-1.67c0.01-0.012,0.25-0.316,0.256-0.33c-4.673,4.037-9.121,8.406-14.124,12.01
				c-3.103,2.24-7.509,5.262-10.69,1.309C244.197,539.48,247.202,534.789,248.332,531.617z"/>
			<path fill-rule="evenodd" clip-rule="evenodd" fill="#B88D32" d="M288.217,478.195c-11.76-6.104-16.807-13.451-14.804-26.24
				C286.308,456.783,288.595,465.604,288.217,478.195z"/>
			<path fill-rule="evenodd" clip-rule="evenodd" fill="#BB933B" d="M464.706,430.756c-0.691-11.717,0.342-22.883-7.005-32.221
				C474.648,409.219,476.053,415.658,464.706,430.756z"/>
			<path fill-rule="evenodd" clip-rule="evenodd" fill="#687870" d="M748.415,496.133c1.245-1.182,2.485-2.363,3.729-3.545
				c13.717,2.814,26.938-0.482,40.324-2.711C778.842,498.984,764.645,504.123,748.415,496.133z"/>
			<path fill-rule="evenodd" clip-rule="evenodd" fill="#BF9847" d="M220.048,508.367c11.61-8.318,19.974-3.174,31.979,2.729
				C239.414,516.598,230.709,515.727,220.048,508.367z"/>
			<path fill-rule="evenodd" clip-rule="evenodd" fill="#899792" d="M222.993,423.412c-1.697,0.129-3.396,0.264-5.089,0.396
				c-9.821,0-19.643,0-30.736,0c8.809-8.686,18.402-8.734,28.398-7.148c-0.002,0-0.329-0.242-0.334-0.242
				C217.82,418.752,220.406,421.084,222.993,423.412z"/>
			<path fill-rule="evenodd" clip-rule="evenodd" fill="#5E7168" d="M417.911,323.419c-1.226-1.315-2.449-2.633-3.674-3.95
				c5.988-13.85-15.581-19.385-9.776-33.979C407.462,299.207,429.577,305.089,417.911,323.419z"/>
			<path fill-rule="evenodd" clip-rule="evenodd" fill="#B88E35" d="M475.613,328.418c-0.507,14.005-7.804,18.652-18.373,22.614
				C457.162,338.521,463.56,332.918,475.613,328.418z"/>
			<path fill-rule="evenodd" clip-rule="evenodd" fill="#C39E54" d="M861.015,446.078c-7.643,8.813-13.125,14.268-22.451,11.918
				c-1.311-0.33-3.323-3.285-3.041-3.707C840.723,446.51,848.761,446.17,861.015,446.078z"/>
			<path fill-rule="evenodd" clip-rule="evenodd" fill="#586A61" d="M453.646,333.837c-1.021-1.155-2.043-2.313-3.063-3.468
				c4.499-10,7.063-20.547,9.402-31.324C461.804,311.355,462.588,323.402,453.646,333.837z"/>
			<path fill-rule="evenodd" clip-rule="evenodd" fill="#C09A47" d="M762.393,408.994c0.762-18.816,14.88-13.811,28.484-18.514
				C780.086,399.887,772.317,405.471,762.393,408.994z"/>
			<path fill-rule="evenodd" clip-rule="evenodd" fill="#BD953D" d="M203.525,610.539c1.847,8.719,4.422,16.535-2.784,22.535
				c-2.153,1.799-4.086-1.621-4.874-3.67C192.725,621.244,194.448,614.947,203.525,610.539z"/>
			<path fill-rule="evenodd" clip-rule="evenodd" fill="#B88E39" d="M745.938,378.482c-1.071,16.205-7.975,24.238-21.496,32.42
				C729.621,397.02,737.039,389.344,745.938,378.482z"/>
			<path fill-rule="evenodd" clip-rule="evenodd" fill="#C19843" d="M393.363,293.662c6.797,6.025,15.51,11.154,12.97,23.367
				C393.752,313.256,394.568,302.836,393.363,293.662z"/>
			<path fill-rule="evenodd" clip-rule="evenodd" fill="#BA9038" d="M377.736,526.275c-3.766,12.123-8.837,17.941-19.631,20.023
				C358.285,533.688,365.014,529.313,377.736,526.275z"/>
			<path fill-rule="evenodd" clip-rule="evenodd" fill="#B78C30" d="M488.906,450.182c-4.222,8.117-9.623,13.646-19.298,12.678
				c-0.735-0.078-2.112-3.176-1.661-4.164C471.986,449.846,478.604,446.424,488.906,450.182z"/>
			<path fill-rule="evenodd" clip-rule="evenodd" fill="#B78C33" d="M276.852,575.746c-7.644,8.369-15.305,12.156-26.796,10.502
				C256.559,575.1,265.048,573.445,276.852,575.746z"/>
			<path fill-rule="evenodd" clip-rule="evenodd" fill="#B68A2F" d="M770.473,334.017c-0.725-11.884,0.021-20.354,10.1-25.583
				C782.791,319.129,781.89,327.809,770.473,334.017z"/>
			<path fill-rule="evenodd" clip-rule="evenodd" fill="#C09948" d="M304.974,517.02c19.897,9.496,0.534,14.697-1.338,21.805
				c-7.338-8.301,2.389-14.539,1.63-22.061C305.262,516.764,304.974,517.02,304.974,517.02z"/>
			<path fill-rule="evenodd" clip-rule="evenodd" fill="#BA9138" d="M243.697,645.678c-11.168-5.76-12.019-13.334-9.995-23.549
				C243.722,627.58,245.579,634.986,243.697,645.678z"/>
			<path fill-rule="evenodd" clip-rule="evenodd" fill="#BA9137" d="M850.781,348.286c-3.857,11.245-9.743,15.095-20.587,13.915
				C833.424,352.56,839.091,348.564,850.781,348.286z"/>
			<path fill-rule="evenodd" clip-rule="evenodd" fill="#6B7D77" d="M594.442,323.314c-0.28-2.014-0.57-4.027-0.851-6.04
				c3.209-12.165,12.574-21.988,12.154-37.247c7.433,14.858-2.491,24.529-5.021,35.581l0.353-0.347
				C598.862,317.942,596.651,320.63,594.442,323.314z"/>
			<path fill-rule="evenodd" clip-rule="evenodd" fill="#C39E4F" d="M185.965,515.146c-8.689,5.664-15.887,8.324-26.186,3.137
				C168.424,511.898,175.332,508.273,185.965,515.146z"/>
			<path fill-rule="evenodd" clip-rule="evenodd" fill="#7B8982" d="M482.191,220.568c0.064,1.53,0.128,3.061,0.191,4.59
				c-10.888-4.232-24.972-1.451-33.646-16.068C461.255,213.388,471.723,216.978,482.191,220.568z"/>
			<path fill-rule="evenodd" clip-rule="evenodd" fill="#817F62" d="M204.858,504.084c-3.106,6.08-10.284,1.5-14.216,5.418
				c-9.619-0.287-18.254-2.902-29.305-13.727C178.673,502.152,191.697,503.652,204.858,504.084z"/>
			<path fill-rule="evenodd" clip-rule="evenodd" fill="#BC9540" d="M257.07,333.428c-5.547-1.383-11.215-2.188-10.966-8.023
				c0.181-4.309,5.355-3.393,8.579-3.541c4.304-0.195,9.563,1.141,10.271,5.23C265.991,333.033,258.896,330.59,257.07,333.428z"/>
			<path fill-rule="evenodd" clip-rule="evenodd" fill="#C19B48" d="M911.106,531.928c3.304,4.328,7.799,9.438-2.441,9.773
				c-5.495,0.176-11.442-0.928-15.499-8.186c6.313-2.895,12.22-2.561,18.258-1.316L911.106,531.928z"/>
			<path fill-rule="evenodd" clip-rule="evenodd" fill="#C39F58" d="M466.671,310.59c8.397-6.639,15.104-6.772,23.207-0.438
				C482.383,316.606,475.655,316.247,466.671,310.59z"/>
			<path fill-rule="evenodd" clip-rule="evenodd" fill="#617670" d="M889.322,527.809c-1.457-1.387-2.906-2.771-4.354-4.16
				c11.315-7.326,20.649-0.414,30.209,4.33c2.955,1.467,0.634,2.443-0.747,3.094c-1.021,0.475-2.217,0.574-3.328,0.848
				c0.005,0.008,0.309,0.271,0.317,0.277C905.238,524.805,896.524,530.088,889.322,527.809z"/>
			<path fill-rule="evenodd" clip-rule="evenodd" fill="#B78B35" d="M651.432,423.668c-9.275-1.441-14.786-4.918-15.76-13.109
				c-0.104-0.883,2.591-3.17,3.407-2.924C646.077,409.777,651.396,413.625,651.432,423.668z"/>
			<path fill-rule="evenodd" clip-rule="evenodd" fill="#BC9546" d="M755.975,279.121c-0.946-19.84,11.528-4.998,17.266-7.529
				c-4.287,6.648-10.573,7.95-17.576,7.31L755.975,279.121z"/>
			<path fill-rule="evenodd" clip-rule="evenodd" fill="#BF9847" d="M703.631,250.438c-6.393-8.121-7.116-14.386,0.026-21.46
				C710.758,236.322,710.758,242.967,703.631,250.438z"/>
			<path fill-rule="evenodd" clip-rule="evenodd" fill="#C6A35A" d="M799.634,385.432c-10.18,3.813-16.753,2.344-22.468-2.748
				c-0.599-0.531,0.015-3.941,0.795-4.266C786.106,375.006,792.25,378.34,799.634,385.432z"/>
			<path fill-rule="evenodd" clip-rule="evenodd" fill="#C09A4D" d="M156.406,573.043c0.511-10.141,6.865-12.969,16.234-16.623
				C172.24,568.578,166.78,572.256,156.406,573.043z"/>
			<path fill-rule="evenodd" clip-rule="evenodd" fill="#BA9037" d="M162.305,644.332c-0.897-10.529,2.237-16.703,13.197-19.248
				C176.804,635.707,172.278,640.969,162.305,644.332z"/>
			<path fill-rule="evenodd" clip-rule="evenodd" fill="#C29B48" d="M892.666,506.643c7.234-0.447,14.174-5.781,22.235-1.844
				c-12.042,11.826-19.003,12.166-21.933,1.559L892.666,506.643z"/>
			<path fill-rule="evenodd" clip-rule="evenodd" fill="#75837B" d="M705.156,351.018c-1.161-3.503-4.553-2.464-6.961-3.424
				c10.186-6.99,22.812-2.979,33.68-7.362C724.977,348.893,714.666,348.977,705.156,351.018z"/>
			<path fill-rule="evenodd" clip-rule="evenodd" fill="#C29D4A" d="M488.243,465.773c7.222,8.705,6.599,16.512,9.182,25.859
				C485.049,485.283,483.594,477.83,488.243,465.773z"/>
			<path fill-rule="evenodd" clip-rule="evenodd" fill="#C29C4F" d="M513.754,205.068c-4.901-0.939-6.131-4.153-6.704-7.62
				c-0.677-4.069-1.284-9.148,3.288-10.7c6.161-2.095,5.716,4.377,6.854,7.607C518.662,198.546,516.318,202.113,513.754,205.068z"/>
			<path fill-rule="evenodd" clip-rule="evenodd" fill="#73857F" d="M845.559,391.975c2.366-1.219,4.729-2.43,7.096-3.643
				c7.08,3.398,16.006-7.725,22.177,2.813l0.332-0.092C865.414,395.295,855.905,407.277,845.559,391.975z"/>
			<path fill-rule="evenodd" clip-rule="evenodd" fill="#BB9342" d="M241.342,361.477c10.664,1.837,15.259,6.377,17.607,15.117
				C248.096,377.996,244.57,371.867,241.342,361.477z"/>
			<path fill-rule="evenodd" clip-rule="evenodd" fill="#BD9643" d="M376.531,300.502c-8.926-6.172-9.146-12.947-7.948-22.838
				C378.565,284.257,379.191,290.912,376.531,300.502z"/>
			<path fill-rule="evenodd" clip-rule="evenodd" fill="#C09D57" d="M862.938,547.816c-2.611,8.828-8.601,11.9-16.627,13.123
				C848.55,550.76,848.55,550.76,862.938,547.816z"/>
			<path fill-rule="evenodd" clip-rule="evenodd" fill="#112219" d="M244.413,380.324c-10.059,0.605-20.181,3.285-30.054-2.205
				c9.641,7.121,20.561-16.613,29.689,2.559C244.045,380.678,244.413,380.324,244.413,380.324z"/>
			<path fill-rule="evenodd" clip-rule="evenodd" fill="#BB9241" d="M573.602,446.889c-3.302,12.635-8.607,19.949-19.523,29.266
				C558.862,462.973,562.755,454.754,573.602,446.889z"/>
			<path fill-rule="evenodd" clip-rule="evenodd" fill="#BB9341" d="M224.523,575.309c-2.47,8.246-7.425,11.953-14.206,13.316
				c-0.599,0.123-2.685-2.58-2.418-3.475C210.035,577.967,215.385,575.287,224.523,575.309z"/>
			<path fill-rule="evenodd" clip-rule="evenodd" fill="#C4A15D" d="M807.453,574.748c-10.592-2.203-16.567-4.068-18.505-13.555
				C797.812,561.344,802.589,564.93,807.453,574.748z"/>
			<path fill-rule="evenodd" clip-rule="evenodd" fill="#7E8D85" d="M737.695,311.521c0.408-0.99,0.441-1.991,0.099-3.01
				c11.593-0.496,23.142-1.246,33.896-6.613C762.886,314.727,750.321,313.232,737.695,311.521z"/>
			<path fill-rule="evenodd" clip-rule="evenodd" fill="#B68A37" d="M600.726,315.608c5.352-0.973,9.378-7.593,16.937-3.683
				c-3.809,6.785-8.023,11.787-16.035,11.342c-0.322-0.017-0.364-5.218-0.549-8.006L600.726,315.608z"/>
			<path fill-rule="evenodd" clip-rule="evenodd" fill="#6A7B73" d="M283.615,322.307c0.264,1.199,0.527,2.391,0.791,3.588
				c-11.348,1.09-19.574-4.279-25.979-13.693C266.824,315.568,275.219,318.938,283.615,322.307z"/>
			<path fill-rule="evenodd" clip-rule="evenodd" fill="#A49161" d="M283.822,528.24c13.419,5.031,7.692,12.588,3.027,21.621
				c-7.155-7.652-1.518-15.168-2.717-21.906L283.822,528.24z"/>
			<path fill-rule="evenodd" clip-rule="evenodd" fill="#B78C32" d="M598.343,291.261c-7.759,8.165-13.896,9.573-21.68,4.343
				C582.26,287.611,589.063,289.178,598.343,291.261z"/>
			<path fill-rule="evenodd" clip-rule="evenodd" fill="#C7A561" d="M609.216,344.654c-6.729-6.934-3.089-11.923-0.078-16.709
				c0.436-0.683,3.821-0.689,4.229-0.021C617.12,334.069,613.594,338.81,609.216,344.654z"/>
			<path fill-rule="evenodd" clip-rule="evenodd" fill="#BF9947" d="M473.495,261.559c-4.337-7.644-2.319-13.027,3.074-17.498
				c0.421-0.343,3.727,1.346,3.917,2.406C481.628,252.785,478.976,257.467,473.495,261.559z"/>
			<path fill-rule="evenodd" clip-rule="evenodd" fill="#929F99" d="M583.033,708.402c-5.934-7.805-5.999-16.949-7.532-28.084
				c9.307,7.695,7.166,17.35,10.664,24.77C585.123,706.193,584.074,707.299,583.033,708.402z"/>
			<path fill-rule="evenodd" clip-rule="evenodd" fill="#96A29B" d="M745.901,476.928c-4.757,0.285-5.618-4.033-7.884-6.688
				c5.301-6.037,11.335-3.158,17.387-2.807C755.848,475.805,747.162,472.064,745.901,476.928z"/>
			<path fill-rule="evenodd" clip-rule="evenodd" fill="#B9903B" d="M755.664,278.901c3.647,5.708,14.063,4.026,14.731,14.929
				c-7.75-2.987-20.313,1.192-14.415-14.703C755.975,279.121,755.664,278.901,755.664,278.901z"/>
			<path fill-rule="evenodd" clip-rule="evenodd" fill="#B88E37" d="M476.496,207.193c0.625,2.842-0.57,4.363-3.449,4.168
				c-5.331-0.369-8.271-3.82-9.66-8.537c-0.969-3.282,0.416-6.166,4.182-5.301C472.387,198.633,475.255,202.346,476.496,207.193z"/>
			<path fill-rule="evenodd" clip-rule="evenodd" fill="#B5A172" d="M337.308,434.957c0.278,1.068,0.327,2.146,0.147,3.24
				c-6.641,6.891-14.31,2.715-21.766,1.738C322.83,437.893,329.445,433.885,337.308,434.957z"/>
			<path fill-rule="evenodd" clip-rule="evenodd" fill="#AA996D" d="M585.024,192.178c-0.702,9.301-2.765,14.951-9.347,18.374
				C574.79,200.424,574.79,200.424,585.024,192.178z"/>
			<path fill-rule="evenodd" clip-rule="evenodd" fill="#DCC07F" d="M756.255,504.857c9.868-2.162,16.401-3.643,25.739-0.059
				C773.014,507.264,766.989,512.504,756.255,504.857z"/>
			<path fill-rule="evenodd" clip-rule="evenodd" fill="#C69F58" d="M605.352,236.891c-0.773-2.535-1.549-5.074-2.323-7.617
				c-1.175-3.007-1.14-6.201,1.534-7.998c4.168-2.793,4.824,1.696,5.568,3.868C611.834,230.156,613.966,235.869,605.352,236.891z"/>
			<path fill-rule="evenodd" clip-rule="evenodd" fill="#B58931" d="M864.006,420.021c4.464,0,8.932,0,13.894,0
				c-2.926,7.576-8.656,10.518-15.012,7.893c-5.096-2.105,2.513-5.088,1.472-8.252L864.006,420.021z"/>
			<path fill-rule="evenodd" clip-rule="evenodd" fill="#C6A45C" d="M249.141,485.445c10.352-4.998,16.027-5.055,21.936,1.428
				C264.121,490.695,258.604,489.49,249.141,485.445z"/>
			<path fill-rule="evenodd" clip-rule="evenodd" fill="#67786F" d="M528.96,722.703c13.363-9.357,12.383-22.832,10.473-36.564
				c8.71-11.111,2.37-21.965-2.776-30.961c-5.485-9.594-5.426-17.461-0.611-26.381c3.393,5.611,1.513,21.693,14.955,6.639
				c5.42-6.068,11.48-2.506,12.784,4.955c2.278,13.033,3.524,27.217-3.901,38.273c-7.517,11.186-12.344,22.686-15.893,35.389
				C541.162,724.162,539.337,724.512,528.96,722.703z"/>
			<path fill-rule="evenodd" clip-rule="evenodd" fill="#A3ADA8" d="M528.554,545.449c7.386-14.252,4.313-44.719-6.524-64.605
				c8.632,1.656,4.204-4.881,4.703-7.889c3.59-21.611,15.481-37.322,35.179-47.617c-4.651,5.664-9.475,11.195-13.93,17.014
				c-14.799,19.352-18.37,40.75-12.377,64.326c4.783,18.797,5.187,37.494-6.071,54.697c-1.098-2.605-2.199-5.207-3.3-7.814
				C522.756,549.641,522.936,546.77,528.554,545.449z"/>
			<path fill-rule="evenodd" clip-rule="evenodd" fill="#4E6257" d="M693.142,505.609c-33.74-17.736-66.801-25.422-100.713,1.963
				C606.647,474.197,668.733,473.396,693.142,505.609z"/>
			<path fill-rule="evenodd" clip-rule="evenodd" fill="#67786F" d="M536.663,625.74c-2.706-4.619,3.808-11.824-4.194-14.961
				c5.727-14.674,2.809-31.379,10.761-48.707C557.26,587.166,543.745,606.107,536.663,625.74z"/>
			<path fill-rule="evenodd" clip-rule="evenodd" fill="#B09451" d="M815.822,417.699c-4.097-16.371-4.097-16.371,28.117-14.395
				c-12.886,3.494-0.879,21.334-17.946,19.025C822.614,420.787,819.214,419.246,815.822,417.699z"/>
			<path fill-rule="evenodd" clip-rule="evenodd" fill="#4D6358" d="M567.205,499.449c-1.288-21.537,16.369-43.189,42.496-50.326
				C589.637,464.088,576.191,479.852,567.205,499.449z"/>
			<path fill-rule="evenodd" clip-rule="evenodd" fill="#63746C" d="M550.466,344.589c-3.329-7.261-8.112-13.405-18.501-18.579
				c14.398,0.065,14.398,0.065,17.522-16.279c1.584,13.246,2.886,24.106,4.18,34.966l-1.618,0.409L550.466,344.589z"/>
			<path fill-rule="evenodd" clip-rule="evenodd" fill="#BE953C" d="M850.387,420.268c-0.894-0.729-1.977-1.316-2.654-2.213
				c-4.132-5.482-3.152-10.859,0.691-15.98c1.35-1.791,3.21-4.234,5.609-2.576c5.405,3.73,1.196,9.744,2.837,14.465
				c-0.338,1.086-0.72,2.156-1.147,3.225C853.935,418.221,852.16,419.246,850.387,420.268z"/>
			<path fill-rule="evenodd" clip-rule="evenodd" fill="#FFFFFF" d="M357.888,460.416c11.169-1.092,19.69,3.545,29.462,15.256
				C374.094,471.398,367.635,462.469,357.888,460.416z"/>
			<path fill-rule="evenodd" clip-rule="evenodd" fill="#2C3C34" d="M528.554,545.449c-0.775,2.707-1.548,5.41-2.32,8.111
				c-2.882,8.375-5.764,16.748-9.259,26.896c-6.935-17.852,3.8-30.996,6.365-45.633
				C529.903,536.736,527.627,541.779,528.554,545.449z"/>
			<path fill-rule="evenodd" clip-rule="evenodd" fill="#BE9742" d="M581.089,381.143c-6.327,3.805-10.104,11.26-19.946,9.91
				c0.17-8.465,4.681-14.369,11.053-18.717c9.317-6.359,15.745-2.336,19.545,7.053c2.258,5.576,0.927,12.717-4.393,13.543
				C580.225,394.035,584.946,385.27,581.089,381.143z"/>
			<path fill-rule="evenodd" clip-rule="evenodd" fill="#B98F32" d="M548.96,387.035c3.872,11.387,2.893,20.676-6.765,28.469
				C536.922,399.811,537.348,397.902,548.96,387.035z"/>
			<path fill-rule="evenodd" clip-rule="evenodd" fill="#BB9137" d="M514.989,243.447c11.654-1.596,17.521,3.176,20.913,11.741
				c0.897,2.268,0.497,5.896-1.898,5.666C524.156,259.915,518.371,253.684,514.989,243.447z"/>
			<path fill-rule="evenodd" clip-rule="evenodd" fill="#C09848" d="M528.217,295.723c7.764,1.521,11.65,5.555,12.287,12.736
				c0.275,3.105-1.936,4.606-4.265,3.445C530.113,308.85,526.838,303.922,528.217,295.723z"/>
			<path fill-rule="evenodd" clip-rule="evenodd" fill="#C5A159" d="M536.759,225.191c10.857-1.4,15.952,2.615,21.198,9.223
				C547.629,238.305,542.617,233.35,536.759,225.191z"/>
			<path fill-rule="evenodd" clip-rule="evenodd" fill="#C7A454" d="M517.266,268.787c7.32-4.931,12.406-4.617,19.557,0.611
				C529.402,273.496,524.299,273.799,517.266,268.787z"/>
			<path fill-rule="evenodd" clip-rule="evenodd" fill="#BA903A" d="M539.381,277.223c-3.273,7.93-7.25,13.008-16.717,8.773
				C526.457,279.226,530.529,274.336,539.381,277.223z"/>
			<path fill-rule="evenodd" clip-rule="evenodd" fill="#C39A48" d="M550.162,207.166c12.586,0.12,11.073,8.77,12.114,17.625
				c-11.129-2.879-7.967-12.461-11.964-17.83C550.313,206.958,550.162,207.166,550.162,207.166z"/>
			<path fill-rule="evenodd" clip-rule="evenodd" fill="#BB9236" d="M795.924,426.746c-12.886,14.115-1.4,16.936,9.453,20.951
				c-11.705,8.006-21.629,7.248-31.609,3.154c-3.718-1.525-5.175-5.287-3.147-8.959C775.43,433.17,782.417,427.49,795.924,426.746z"
				/>
			<path fill-rule="evenodd" clip-rule="evenodd" fill="#C29C4D" d="M801.646,437.387c6.034-7.775,11.177-11.537,18.942-8.533
				c0.88,0.348,1.786,3.525,1.252,4.143C817.15,438.393,811.042,438.816,801.646,437.387z"/>
			<path fill-rule="evenodd" clip-rule="evenodd" fill="#BC933B" d="M373.408,382.533c-14.406,9.604-22.998,1.879-32.688-7.705
				C354.713,367.197,363.645,373.568,373.408,382.533z"/>
			<path fill-rule="evenodd" clip-rule="evenodd" fill="#C1983D" d="M327.001,330.172c-8.417-11.975,6.856-7.523,9.607-11.689
				c-0.063,6.229,6.291,17.284-10.036,11.313L327.001,330.172z"/>
		</g>
	</g>
	<g>
		<g>
			<defs>
				<rect id="SVGID_1_" x="518.625" y="839.094" width="45.142" height="30.342"/>
			</defs>
			<clipPath id="SVGID_2_">
				<use xlink:href="#SVGID_1_"  overflow="visible"/>
			</clipPath>
			<path clip-path="url(#SVGID_2_)" d="M521.555,860.408c0,0,0.965,0.188,2.539,0.461l0.027-4.099
				c0.003-0.337,0.268-0.567,0.592-0.518l3.322,0.518c0.324,0.052,0.585,0.364,0.584,0.701l-0.028,4.13
				c1.242,0.188,2.583,0.379,3.969,0.552l0.026-4.063c0.002-0.335,0.269-0.568,0.592-0.517l3.322,0.519
				c0.324,0.05,0.586,0.362,0.584,0.699l-0.026,3.858c3.825,0.341,7.535,0.462,10.022,0.024c0.316-0.056,0.173-4.092-3.72-9.582
				c-0.678-0.957,5.126-0.154,6.295,8.895c4.216-1.574,7.365-5.367,6.811-8.438c-1.339-7.43-6.191-12.319-13.741-13.852
				c-13.418-2.723-22.904,3.917-24.061,16.727C518.452,858.757,519.047,859.933,521.555,860.408L521.555,860.408z M521.555,860.408"
				/>
			<path clip-path="url(#SVGID_2_)" d="M558.912,855.876c-3.164,6.969-9.095,8.817-15.76,8.821
				c-6.338,0.004-19.638-2.364-22.199-2.946c-2.562-0.583-2.723-0.209-1.63,0.405c6.765,3.818,23.751,7.902,35.151,7.094
				c4.555-0.321,7.429-3.819,9.012-7.827C564.705,858.343,559.572,854.529,558.912,855.876L558.912,855.876z M558.912,855.876"/>
		</g>
	</g>
</g>
</svg>
